<svg xmlns="http://www.w3.org/2000/svg" viewBox="0 0 359 76" width="359" height="76">
	<path id="Layer" class="shp0" fill="#999999" d="M38.01 4L36.02 4L35.99 4L35.75 4L35.72 4L35.72 4L35.68 4L35.68 4L35.64 4L35.64 4L35.62 4L35.6 4L35.58 4L35.56 4L35.54 4L35.52 4L35.5 4L35.5 4L35.46 4L35.46 4L35.42 4L35.42 4L35.38 4L35.38 4L35.34 4L35.34 4L35.3 4L35.3 4L35.2 4.01L35.2 4.01L35.16 4.01L35.16 4.01L35.12 4.01L35.12 4.01L35.08 4.01L35.08 4.01C34.29 4.08 33.51 4.17 32.74 4.29L33.07 6.39C34.7 6.18 36.35 6.09 38.01 6.13L38.01 4L38.01 4ZM27.55 5.64C25.86 6.18 24.22 6.86 22.64 7.66L23.6 9.55C25.08 8.8 26.62 8.17 28.2 7.66L27.54 5.64L27.55 5.64ZM18.11 10.42C16.67 11.46 15.32 12.61 14.06 13.86L15.56 15.37C16.74 14.2 18.01 13.12 19.35 12.15L18.11 10.42L18.11 10.42ZM10.59 17.88C10.31 18.27 10.03 18.66 9.76 19.06L9.76 19.06L9.73 19.11L9.73 19.11L9.7 19.15L9.7 19.15L9.69 19.16L9.69 19.16L9.67 19.2L9.67 19.2L9.66 19.21L9.66 19.21L9.65 19.23L9.65 19.23L9.64 19.25L9.64 19.25L9.62 19.28L9.62 19.28L9.61 19.29L9.61 19.29L9.6 19.31L9.6 19.31L9.59 19.32L9.59 19.32L9.57 19.34L9.57 19.34L9.57 19.36L9.57 19.36L9.56 19.37L9.56 19.37L9.55 19.39L9.55 19.39L9.54 19.4L9.54 19.4L9.53 19.42L9.53 19.42L9.52 19.43L9.52 19.43L9.51 19.44L9.51 19.44L9.5 19.46L9.5 19.46L9.49 19.47L9.49 19.47L9.48 19.49L9.48 19.49L9.47 19.5L9.47 19.5L9.46 19.52L9.46 19.52L9.45 19.53L9.45 19.53L9.44 19.55L9.44 19.55L9.43 19.56L9.43 19.56L9.42 19.58L9.42 19.58L9.41 19.59L9.41 19.59L9.4 19.6L9.4 19.6L9.39 19.62L9.39 19.62L9.38 19.63L9.38 19.63L9.37 19.65L9.37 19.65L9.37 19.66L9.37 19.66L9.36 19.67L9.36 19.67L9.35 19.69L9.35 19.69L9.34 19.7L9.34 19.7L9.34 19.72L9.34 19.72L9.33 19.73L9.33 19.73L9.32 19.74L9.32 19.74L9.31 19.76L9.31 19.76L9.3 19.77L9.3 19.77L9.3 19.78L9.3 19.78L9.29 19.79L9.29 19.79L9.28 19.81L9.28 19.81L9.27 19.82L9.27 19.82L9.26 19.83L9.26 19.83L9.26 19.85L9.26 19.85L9.25 19.86L9.25 19.87L9.24 19.88L9.24 19.88L9.23 19.89L9.23 19.9L9.23 19.91L9.23 19.91L9.22 19.92L9.22 19.93L9.1 20.09L9.1 20.09L9.09 20.1L9.09 20.11L9.09 20.12L9.09 20.13L9.08 20.14L9.08 20.15L9.07 20.16L9.07 20.16L9.06 20.18L9.06 20.18L9.06 20.19L9.06 20.19L9.05 20.21L9.05 20.21L9.04 20.22L9.04 20.23L9.04 20.24L9.04 20.25L9.03 20.26L9.03 20.27L9.02 20.28L9.02 20.28L9.01 20.29L9.01 20.3L9.01 20.31L9.01 20.32L9 20.33L9 20.33L8.99 20.35L8.99 20.35L8.98 20.37L8.98 20.37L8.98 20.38L8.98 20.38L8.97 20.4L8.97 20.4L8.96 20.41L8.96 20.42L8.95 20.43L8.95 20.44L8.94 20.45L8.94 20.46L8.94 20.47L8.94 20.47L8.93 20.49L8.93 20.49L8.93 20.5L8.93 20.51L8.92 20.52L8.92 20.53L8.91 20.54L8.91 20.55L8.9 20.56L8.9 20.56L8.9 20.58L8.9 20.58L8.89 20.59L8.89 20.6L8.89 20.61L8.89 20.62L8.88 20.63L8.88 20.64L8.88 20.65L8.88 20.65L8.87 20.66L8.87 20.67L8.86 20.68L8.86 20.69L8.86 20.7L8.86 20.71L8.85 20.72L8.85 20.72L8.84 20.74L8.84 20.74L8.84 20.75L8.84 20.76L8.83 20.77L8.83 20.78L8.82 20.79L8.82 20.8L8.81 20.81L8.81 20.81L8.81 20.83L8.81 20.83L8.8 20.84L8.8 20.85L8.79 20.86L8.79 20.87L8.79 20.88L8.79 20.89L8.78 20.9L8.78 20.9L8.77 20.92L8.77 20.92L8.77 20.93L8.77 20.94L8.76 20.95L8.76 20.96L8.75 20.97L8.75 20.98L8.75 20.99L8.75 20.99L8.74 21.01L8.74 21.01L8.73 21.02L8.73 21.03L8.73 21.04L8.73 21.05L8.72 21.06L8.72 21.07L8.71 21.08L8.71 21.08L8.71 21.09L8.71 21.1L8.7 21.11L8.7 21.11L8.69 21.12L8.69 21.13L8.68 21.14L8.68 21.15L8.68 21.16L8.68 21.16L8.67 21.18L8.67 21.18L8.66 21.2L8.66 21.2L8.66 21.21L8.66 21.22L8.65 21.23L8.65 21.24L8.64 21.25L8.64 21.26L8.64 21.27L8.64 21.27L8.63 21.29L8.63 21.29L8.62 21.3L8.62 21.3L8.62 21.31L8.62 21.32L8.61 21.33L8.61 21.34L8.6 21.35L8.6 21.35L8.59 21.36L8.59 21.36L8.59 21.37L8.59 21.37L8.58 21.39L8.58 21.39L8.57 21.4L8.57 21.4L8.56 21.42L8.56 21.42L8.56 21.43L8.56 21.43L8.55 21.44L8.55 21.44L8.54 21.46L8.54 21.46L8.25 21.53L8.25 21.53L8.24 21.55L8.24 21.55L8.23 21.56L8.23 21.56L8.23 21.58L8.23 21.58L8.22 21.59L8.22 21.59L8.21 21.61L8.21 21.61L8.2 21.62L8.2 21.62L8.19 21.63L8.19 21.63L8.19 21.65L8.19 21.65L8.18 21.66L8.18 21.66L8.17 21.68L8.17 21.68L8.16 21.7L8.16 21.7L8.15 21.71L8.15 21.71L8.14 21.73L8.14 21.73L8.13 21.76L8.13 21.76L8.12 21.78L8.12 21.78L8.11 21.79L8.11 21.79L8.1 21.81L8.1 21.81L8.08 21.84L8.08 21.84L8.07 21.86L8.07 21.86L8.07 21.88L8.07 21.88L8.06 21.89L8.06 21.89L8.05 21.91L8.05 21.91L8.04 21.93L8.04 21.93L8.03 21.95L8.03 21.95L8.01 21.98L8.01 21.98L8 22L8 22L7.99 22.01L7.99 22.01L7.99 22.03L7.99 22.03L7.98 22.05L7.98 22.05L7.97 22.06L7.97 22.06L7.96 22.08L7.96 22.08L7.94 22.12L7.94 22.12L7.93 22.14L7.93 22.14L7.92 22.15L7.92 22.15L7.91 22.17L7.91 22.17L7.89 22.21L7.89 22.21L7.88 22.23L7.88 22.23L7.86 22.26L7.86 22.26L7.84 22.3L9.73 23.28C10.49 21.8 11.37 20.39 12.36 19.05L10.59 17.88ZM5.73 27.27C5.55 27.79 5.39 28.32 5.25 28.85L5.25 28.85L5.24 28.89L5.24 28.89L5.23 28.93L5.23 28.93L5.21 28.99L5.21 28.99L5.2 29.03L5.2 29.03L5.19 29.07L5.19 29.07L5.19 29.08L5.19 29.08L5.19 29.1L5.19 29.1L5.19 29.12L5.19 29.12L5.18 29.16L5.18 29.16L5.18 29.18L5.18 29.18L5.18 29.19L5.18 29.19L5.18 29.21L5.18 29.21L5.18 29.23L5.18 29.23L5.18 29.25L5.18 29.25L5.18 29.26L5.18 29.26L5.18 29.28L5.18 29.28L5.18 29.3L5.18 29.3L5.18 29.31L5.18 29.31L5.18 29.33L5.18 29.33L5.18 29.35L5.18 29.35L5.18 29.36L5.18 29.36L5.18 29.38L5.18 29.38L5.18 29.39L5.18 29.39L5.18 29.41L5.18 29.41L5.18 29.42L5.18 29.43L5.18 29.44L5.18 29.45L5.18 29.46L5.18 29.46L5.18 29.48L5.18 29.49L5.18 29.5L5.18 29.51L5.18 29.52L5.18 29.53L5.18 29.54L5.18 29.55L5.18 29.56L5.18 29.57L5.18 29.58L5.18 29.59L5.18 29.6L5.18 29.61L5.18 29.62L5.18 29.63L5.18 29.64L5.18 29.65L5.18 29.66L5.18 29.67L5.18 29.68L5.18 29.69L5.18 29.7L5.18 29.71L5.18 29.72L5.18 29.73L5.18 29.74L5.18 29.75L5.18 29.76L5.18 29.77L5.18 29.78L5.18 29.79L5.18 29.8L5.18 29.81L5.18 29.82L5.18 29.83L5.18 29.84L5.18 29.85L5.18 29.86L5.18 29.87L5.18 29.88L5.18 29.89L5.18 29.9L5.18 29.91L5.18 29.92L5.18 29.93L5.18 29.94L5.18 29.95L5.18 29.97L5.18 29.97L5.18 29.98L5.18 30L5.18 30L5.18 30.01L5.18 30.02L5.18 30.04L5.18 30.04L5.18 30.05L5.18 30.06L5.18 30.08L5.18 30.08L5.18 30.1L5.18 30.1L5.18 30.12L5.18 30.12L5.18 30.14L5.18 30.14L5.18 30.15L5.18 30.16L5.18 30.18L5.18 30.25L5.18 30.26L5.18 30.26L5.18 30.28L5.18 30.28L5.18 30.3L5.18 30.3L5.18 30.31L5.18 30.32L5.18 30.33L5.18 30.35L5.18 30.36L5.18 30.36L5.18 30.38L5.18 30.38L4.85 30.43L4.85 30.43L4.85 30.45L4.85 30.45L4.85 30.46L4.85 30.46L4.85 30.48L4.85 30.48L4.85 30.49L4.85 30.49L4.85 30.51L4.85 30.51L4.82 30.57L4.82 30.57L4.82 30.59L4.82 30.59L4.82 30.6L4.82 30.6L4.82 30.62L4.82 30.63L4.82 30.64L4.82 30.64L4.82 30.65L4.82 30.67L4.81 30.71L4.81 30.71L4.81 30.73L4.81 30.74L4.81 30.75L4.81 30.75L4.81 30.77L4.81 30.77L4.81 30.78L4.81 30.78L4.81 30.8L4.81 30.81L4.81 30.82L4.81 30.83L4.81 30.84L4.81 30.85L4.81 30.87L4.81 30.89L4.81 30.9L4.81 30.9L4.81 30.92L4.81 30.92L4.81 30.93L4.81 30.94L4.81 30.96L4.81 30.97L4.81 30.98L4.81 30.99L4.81 31L4.81 31L4.81 31.02L4.81 31.03L4.81 31.04L4.81 31.04L4.81 31.06L4.81 31.07L4.81 31.08L4.81 31.09L4.81 31.1L4.81 31.11L4.81 31.12L4.81 31.13L4.81 31.14L4.81 31.15L4.81 31.16L4.81 31.17L4.81 31.18L4.81 31.19L4.81 31.2L4.81 31.21L4.81 31.22L4.81 31.24L4.81 31.24L4.81 31.25L4.81 31.26L4.81 31.28L4.81 31.28L4.81 31.3L4.81 31.3L4.81 31.32L4.81 31.32L4.81 31.34L4.81 31.35L4.81 31.36L4.81 31.36L4.81 31.38L4.81 31.38L4.81 31.4L4.81 31.4L4.81 31.41L4.81 31.42L4.81 31.43L4.81 31.43L4.81 31.45L4.81 31.45L4.81 31.46L4.81 31.46L4.81 31.48L4.81 31.48L4.81 31.5L4.81 31.5L4.81 31.51L4.81 31.51L4.81 31.53L4.81 31.53L4.81 31.55L4.81 31.55L4.81 31.57L4.81 31.57L4.81 31.59L4.81 31.59L4.81 31.61L4.81 31.61L4.81 31.63L4.81 31.63L4.8 31.67L4.8 31.67C4.76 31.91 4.71 32.15 4.67 32.39L6.77 32.74C7.04 31.1 7.44 29.48 7.96 27.91L5.94 27.24L5.73 27.27ZM4 37.72L4 37.75L4 37.75L4 37.91L4 37.91L4 38.01L4 38.01L4 38.22L4 38.22L4 40.06L4 40.09L4 40.22L4 40.22L4 40.24L4 40.27L4 40.41L4 40.45L4 40.45L4 40.48L4 40.54L4 40.56L4 40.58L4 40.61L4 40.61L4 40.62L4 40.66L4 40.67L4 40.7L4 40.76L4 40.78L4 40.8L4 40.83L4 40.85L4 40.87L4 41.11L4 41.13L4 41.55L4 41.57L4 41.59L4 41.61L4 41.63L4 41.65L4 41.67L4 41.68L4 41.68L4 41.7L4 41.72L4 41.74L4 41.76L4 41.78L4 41.8L4 41.82L4 41.82L4 41.83L4 41.83L4 41.85L4 41.85L4 41.87L4 41.87L4 41.91L4 41.91L4 41.92L4 41.92L4 41.94L4 41.94L4 41.96L4 41.96L4 41.99L4 41.99L4 42.03L4 42.03L4 42.07L4 42.07C4.04 42.38 4.08 42.69 4.12 42.99L6.23 42.68C6.08 41.13 6.05 39.56 6.13 38.01L6.13 37.73L4 37.72ZM7.58 47.55L5.55 48.19C5.63 48.45 5.72 48.72 5.81 48.98L5.81 48.98L5.86 49.14L5.86 49.14C5.91 49.27 5.95 49.4 6 49.53L6 49.53C6.44 50.75 6.95 51.95 7.53 53.11L9.43 52.17C8.69 50.68 8.07 49.14 7.58 47.55L7.58 47.55ZM11.99 56.44L10.26 57.66C11.28 59.1 12.41 60.46 13.64 61.73L13.64 61.73L13.66 61.74L15.18 60.25C14.02 59.06 12.95 57.78 11.99 56.43L11.99 56.44ZM18.92 63.54L17.64 65.24C18.71 66.04 19.83 66.78 20.99 67.45L20.99 67.45L21.04 67.48L21.04 67.48L21.07 67.5L21.07 67.5L21.09 67.51L21.09 67.51L21.12 67.53L21.12 67.53L21.14 67.54L21.14 67.54L21.15 67.55L21.15 67.55L21.17 67.56L21.17 67.56L21.19 67.57L21.19 67.57L21.2 67.57L21.2 67.57L21.21 67.58L21.21 67.58L21.22 67.58L21.23 67.58L21.24 67.58L21.25 67.58L21.26 67.59L21.27 67.59L21.28 67.59L21.29 67.59L21.3 67.6L21.31 67.6L21.31 67.6L21.33 67.61L21.33 67.61L21.34 67.61L21.35 67.61L21.36 67.61L21.37 67.61L21.38 67.62L21.39 67.62L21.4 67.62L21.4 67.62L21.42 67.63L21.42 67.63L21.43 67.63L21.44 67.63L21.45 67.64L21.46 67.64L21.47 67.65L21.48 67.65L21.49 67.65L21.5 67.65L21.51 67.66L21.52 67.66L21.53 67.66L21.53 67.66L21.54 67.67L21.54 67.67L21.56 67.68L21.56 67.68L21.57 67.69L21.57 67.69L21.58 67.69L21.58 67.69L21.6 67.7L21.6 67.7L21.61 67.71L21.61 67.71L21.63 67.72L21.63 67.72L21.64 67.73L21.64 67.73L21.66 67.73L21.66 67.73L21.67 67.74L21.67 67.74L21.69 67.75L21.69 67.75L21.71 67.76L21.71 67.76L21.72 67.77L21.72 67.77L21.74 67.78L21.74 67.78L21.76 67.79L21.76 67.79L21.77 67.8L21.77 67.8L21.79 67.81L21.79 67.81L21.81 67.82L21.81 67.82L21.84 67.84L21.84 67.84L21.86 67.85L21.86 67.85L21.88 67.86L21.88 67.86L21.9 67.87L21.9 67.87L21.93 67.88L21.93 67.88L21.95 67.89L21.95 67.89L21.99 67.91L21.99 67.91L22.04 67.94L22.04 67.94L23.13 66.21C21.66 65.43 20.25 64.54 18.92 63.54L18.92 63.54ZM27.69 68.19L27 70.2C28.33 70.65 29.68 71.02 31.05 71.31L31.05 71.31L31.09 71.31L31.09 71.31L31.13 71.32L31.13 71.32L31.15 71.32L31.15 71.32L31.19 71.33L31.19 71.33L31.23 71.34L31.23 71.34L31.25 71.34L31.25 71.34L31.26 71.34L31.26 71.34L31.28 71.34L31.28 71.34L31.3 71.34L31.3 71.34L31.32 71.34L31.32 71.34L31.34 71.34L31.34 71.34L31.35 71.34L31.35 71.34L31.37 71.34L31.37 71.34L31.39 71.34L31.39 71.34L31.4 71.34L31.41 71.34L31.42 71.34L31.43 71.34L31.44 71.34L31.45 71.34L31.46 71.34L31.47 71.34L31.48 71.34L31.52 71.34L31.54 71.34L31.55 71.34L31.56 71.34L31.57 71.34L31.58 71.34L31.59 71.34L31.6 71.34L31.61 71.34L31.62 71.34L31.63 71.34L31.64 71.34L31.65 71.34L31.66 71.34L31.67 71.34L31.68 71.34L31.69 71.34L31.7 71.34L31.72 71.34L31.72 71.34L31.73 71.34L31.73 71.34L31.75 71.34L31.75 71.34L31.78 71.34L31.78 71.34L31.82 71.35L31.82 71.35L31.85 71.35L31.85 71.35L31.89 71.36L31.89 71.36L32.12 71.4L32.49 69.31C30.86 69.06 29.26 68.68 27.69 68.19ZM42.43 69.59C40.97 69.79 39.49 69.89 38.01 69.89C37.82 69.89 37.64 69.89 37.46 69.89L37.43 72.01L37.55 72.01L40.54 72.01L40.57 72.01L40.69 72.01L40.72 72.01L40.74 72.01L40.78 72.01L40.83 72.01L40.87 72.01L40.89 72.01L40.92 72.01L40.94 72.01L40.98 72.01L40.98 72.01L41.03 72.01L41.03 72.01L41.09 72.01L41.09 72.01L41.12 72.01L41.12 72.01L41.23 72L41.23 72C41.73 71.95 42.23 71.89 42.72 71.83L42.42 69.72L42.43 69.59ZM51.93 66.7C50.43 67.42 48.88 68.03 47.3 68.51L47.91 70.55C49.61 70.03 51.26 69.38 52.86 68.61L51.93 66.7ZM60.07 61.02C58.87 62.17 57.58 63.23 56.22 64.18L57.43 65.92L57.43 65.92L57.44 65.92L57.45 65.92L57.46 65.91L57.47 65.91L57.48 65.9L57.48 65.9L57.49 65.89L57.5 65.89L57.51 65.89L57.52 65.89L57.53 65.88L57.53 65.87L57.54 65.87L57.55 65.87L57.56 65.86L57.57 65.85L57.58 65.85L57.58 65.85L57.6 65.85L57.6 65.85L57.61 65.84L57.62 65.83L57.63 65.83L57.64 65.83L57.65 65.82L57.66 65.81L57.66 65.81L57.67 65.81L57.68 65.81L57.69 65.8L57.69 65.8L57.71 65.79L57.71 65.79L57.72 65.78L57.72 65.78L57.73 65.77L57.73 65.77L57.75 65.76L57.75 65.76L57.75 65.76L57.75 65.76L57.77 65.74L57.77 65.74L57.79 65.73L57.79 65.73L57.8 65.72L57.8 65.72L57.82 65.71L57.82 65.71L57.85 65.69L57.85 65.69L57.86 65.68L57.86 65.68L57.89 65.65L57.89 65.65L57.98 65.53L57.98 65.53L58.01 65.51L58.01 65.51L58.03 65.49L58.03 65.49L58.06 65.47L58.06 65.47C58.5 65.15 58.93 64.82 59.35 64.48L59.35 64.48L59.4 64.44L59.4 64.44L59.48 64.38L59.48 64.38L59.55 64.31L59.55 64.31L59.6 64.28L59.6 64.28L59.63 64.25L59.63 64.25L59.65 64.24L59.65 64.24L59.67 64.21L59.67 64.21L59.69 64.2L59.69 64.2L59.7 64.19L59.7 64.19L59.72 64.18L59.72 64.18L59.74 64.16L59.74 64.16L59.75 64.16L59.75 64.16L59.76 64.14L59.76 64.14L59.79 64.12L59.79 64.12L59.81 64.1L59.81 64.1L59.83 64.08L59.83 64.08L59.85 64.07L59.85 64.07L59.86 64.06L59.86 64.06L59.87 64.05L59.87 64.05L59.9 64.02L59.9 64.02L59.91 64.01L59.91 64.01L59.92 64.01L59.92 64.01L59.94 64L59.94 64L60 63.93L60 63.93L60.01 63.93L60.01 63.93L60.02 63.92L60.02 63.92L60.05 63.89L60.05 63.89L60.06 63.88L60.06 63.88L60.07 63.88L60.08 63.87L60.09 63.86L60.09 63.86L60.1 63.85L60.11 63.85L60.12 63.84L60.12 63.83L60.14 63.82L60.14 63.82L60.15 63.82L60.16 63.81L60.17 63.8L60.17 63.8L60.18 63.79L60.19 63.78L60.2 63.78L60.21 63.77L60.21 63.76L60.22 63.76L60.23 63.75L60.24 63.74L60.24 63.74L60.25 63.74L60.26 63.73L60.27 63.72L60.27 63.72L60.29 63.71L60.29 63.71L60.32 63.66L60.33 63.66L60.34 63.65L60.34 63.64L60.36 63.63L60.36 63.63L60.37 63.63L60.38 63.62L60.39 63.61L60.39 63.61L60.4 63.6L60.41 63.6L60.42 63.59L60.42 63.59L60.43 63.58L60.44 63.58L60.45 63.57L60.45 63.56L60.46 63.56L60.47 63.56L60.48 63.55L60.48 63.55L60.49 63.51L60.5 63.51L60.51 63.5L60.52 63.5L60.53 63.49L60.53 63.49L60.53 63.48L60.53 63.48L60.55 63.47L60.55 63.47L60.56 63.46L60.57 63.46L60.58 63.46L60.58 63.46L60.59 63.45L60.59 63.45L60.6 63.44L60.6 63.44L60.61 63.43L60.61 63.43L60.62 63.42L60.62 63.42L60.63 63.41L60.63 63.41L60.64 63.4L60.64 63.4L60.65 63.39L60.65 63.39L60.66 63.38L60.66 63.38L60.68 63.37L60.68 63.37L60.69 63.36L60.69 63.36L60.7 63.34L60.7 63.34L60.71 63.33L60.71 63.33L60.72 63.32L60.72 63.32L60.74 63.31L60.74 63.31L60.75 63.3L60.75 63.3L60.76 63.29L60.76 63.29L60.85 63.19L60.85 63.19L60.87 63.18L60.87 63.18L60.88 63.17L60.88 63.17L60.89 63.16L60.89 63.16L60.9 63.14L60.9 63.14L60.92 63.13L60.92 63.13L60.93 63.12L60.93 63.12L60.94 63.11L60.94 63.11L60.96 63.1L60.96 63.1L60.97 63.09L60.97 63.09L60.98 63.07L60.98 63.07L60.99 63.06L60.99 63.06L61 63.05L61 63.05L61.02 63.04L61.02 63.04L61.03 63.03L61.03 63.03L61.04 63.02L61.04 63.02L61.06 63.01L61.06 63.01L61.07 62.99L61.07 62.99L61.08 62.98L61.08 62.98L61.1 62.97L61.1 62.97L61.11 62.96L61.11 62.96L61.12 62.94L61.12 62.94L61.14 62.93L61.14 62.93L61.15 62.92L61.15 62.92L61.16 62.91L61.16 62.91L61.18 62.89L61.18 62.89L61.19 62.88L61.19 62.88L61.2 62.87L61.2 62.87L61.21 62.86L61.21 62.86L61.23 62.85L61.23 62.85L61.24 62.83L61.24 62.83L61.25 62.82L61.25 62.82L61.27 62.81L61.27 62.81L61.28 62.79L61.28 62.79L61.29 62.78L61.29 62.78L61.38 62.7L61.38 62.7L61.4 62.69L61.4 62.69L61.41 62.67L61.41 62.67L61.44 62.65L61.44 62.65L61.45 62.63L61.45 62.63L61.47 62.62L61.47 62.62L61.48 62.61L61.48 62.61L61.49 62.6L61.49 62.6L61.5 62.58L61.5 62.58L61.52 62.57L61.52 62.57L60.05 61.04L60.07 61.02ZM66.08 53.13C65.29 54.59 64.39 55.99 63.38 57.31L65.07 58.6C65.45 58.1 65.82 57.59 66.17 57.07L66.17 57.07L66.21 57.02L66.21 57.02L66.23 56.98L66.23 56.98L66.24 56.97L66.24 56.97L66.25 56.95L66.25 56.95L66.26 56.94L66.26 56.94L66.27 56.92L66.27 56.92L66.28 56.91L66.28 56.91L66.29 56.89L66.29 56.89L66.3 56.88L66.3 56.88L66.31 56.86L66.31 56.86L66.32 56.85L66.32 56.85L66.33 56.84L66.33 56.84L66.34 56.83L66.34 56.82L66.34 56.81L66.34 56.8L66.35 56.79L66.35 56.79L66.36 56.77L66.36 56.77L66.36 56.76L66.37 56.75L66.37 56.74L66.37 56.73L66.38 56.72L66.38 56.71L66.38 56.71L66.39 56.69L66.39 56.69L66.4 56.68L66.4 56.67L66.41 56.66L66.41 56.66L66.43 56.63L66.43 56.63L66.44 56.61L66.44 56.61L66.46 56.58L66.46 56.58L66.48 56.55L66.48 56.55C66.98 55.78 67.44 54.99 67.88 54.18L66.01 53.17L66.08 53.13ZM69.37 43.78C69.07 45.41 68.64 47.02 68.09 48.58L70.1 49.29C70.19 49.04 70.27 48.79 70.35 48.54L70.35 48.54L70.36 48.5L70.36 48.5L70.38 48.46L70.38 48.46L70.38 48.44L70.38 48.44L70.38 48.43L70.38 48.43L70.39 48.41L70.39 48.41L70.4 48.37L70.4 48.37L70.41 48.36L70.41 48.36L70.41 48.35L70.41 48.34L70.41 48.32L70.41 48.32L70.41 48.31L70.41 48.3L70.41 48.29L70.41 48.28L70.41 48.27L70.41 48.26L70.41 48.25L70.41 48.24L70.41 48.23L70.41 48.22L70.41 48.21L70.41 48.2L70.41 48.19L70.41 48.18L70.41 48.17L70.41 48.16L70.41 48.15L70.41 48.14L70.41 48.13L70.41 48.12L70.41 48.11L70.41 48.1L70.41 48.09L70.41 48.08L70.41 48.07L70.41 48.06L70.41 48.05L70.41 48.04L70.41 48.03L70.41 48.02L70.41 48.01L70.41 48L70.41 48L70.41 47.98L70.41 47.98L70.41 47.96L70.41 47.96L70.41 47.95L70.41 47.95L70.41 47.93L70.41 47.93L70.41 47.91L70.41 47.91L70.41 47.9L70.41 47.9L70.41 47.88L70.41 47.88L70.41 47.87L70.41 47.87L70.41 47.85L70.41 47.85L70.41 47.83L70.41 47.83L70.41 47.81L70.41 47.81L70.41 47.8L70.41 47.8L70.42 47.78L70.42 47.78L70.43 47.74L70.43 47.74L70.44 47.7L70.44 47.7L70.44 47.69L70.44 47.69L70.45 47.67L70.45 47.67L70.65 47.57L70.65 47.57L70.66 47.53L70.66 47.53L70.67 47.47L70.67 47.47L70.69 47.43L70.69 47.43L70.7 47.39L70.7 47.39C70.87 46.79 71.03 46.18 71.17 45.56L71.17 45.56L71.18 45.52L71.18 45.52L71.18 45.48L71.18 45.48L71.18 45.47L71.18 45.47L71.18 45.45L71.18 45.45L71.18 45.43L71.18 45.43L71.19 45.39L71.19 45.39L71.19 45.37L71.19 45.37L71.19 45.35L71.19 45.35L71.19 45.33L71.19 45.33L71.19 45.32L71.19 45.32L71.19 45.3L71.19 45.3L71.19 45.28L71.19 45.28L71.19 45.26L71.19 45.26L71.19 45.25L71.19 45.25L71.19 45.23L71.19 45.23L71.19 45.21L71.19 45.21L71.19 45.2L71.19 45.2L71.19 45.18L71.19 45.18L71.19 45.16L71.19 45.16L71.19 45.14L71.19 45.09L71.19 45.08L71.19 45.07L71.19 45.06L71.19 45.05L71.19 45.04L71.19 45.03L71.19 45.02L71.19 45.01L71.19 45L71.19 44.99L71.19 44.98L71.19 44.97L71.19 44.96L71.19 44.95L71.19 44.94L71.19 44.93L71.19 44.92L71.19 44.9L71.19 44.9L71.19 44.89L71.19 44.88L71.19 44.86L71.19 44.86L71.2 44.82L71.2 44.82L71.21 44.79L71.21 44.79L71.21 44.76L71.21 44.76C71.25 44.56 71.29 44.36 71.32 44.16L69.23 43.78L69.37 43.78ZM71.73 33.58L69.62 33.85C69.8 35.23 69.89 36.62 69.89 38.01C69.89 38.28 69.88 38.55 69.87 38.82L72 38.87C72 38.79 72 38.71 72 38.62L72 38.62L72 38.38L72 38.38L72 38.37L72 38.37L72 38.36L72 38.36L72 38.35L72 38.35L72 38.03L72 38.03L72 38.01L72 38.01L72 37.02L72 37.02L72 36.99L72 36.99L72 36.93L72 36.93L72 36.91L72 36.86L72 36.84L72 36.84L72 36.8L72 36.8L72 36.78L72 36.78L72 36.73L72 36.73L72 36.72L72 36.72L72 36.66L72 36.66C71.96 35.62 71.87 34.58 71.74 33.57L71.73 33.58ZM68.73 23.42L66.81 24.34C67.53 25.83 68.12 27.38 68.59 28.97L70.63 28.37C70.13 26.67 69.49 25.02 68.73 23.41L68.73 23.42ZM62.76 14.69L61.21 16.15C62.35 17.36 63.39 18.65 64.33 20.03L66.09 18.82C65.94 18.61 65.8 18.4 65.65 18.2L65.65 18.2L65.61 18.15L65.61 18.15L65.59 18.12L65.59 18.12L65.58 18.1L65.58 18.1L65.57 18.09L65.57 18.09L65.56 18.07L65.56 18.07L65.53 18.03L65.53 18.03L65.52 18.01L65.52 18.01L65.5 17.98L65.5 17.98L65.49 17.97L65.49 17.97L65.48 17.96L65.48 17.95L65.47 17.94L65.47 17.93L65.47 17.93L65.46 17.91L65.46 17.91L65.46 17.9L65.46 17.89L65.46 17.88L65.45 17.87L65.44 17.86L65.44 17.86L65.44 17.85L65.43 17.84L65.42 17.83L65.42 17.82L65.42 17.81L65.42 17.81L65.41 17.8L65.41 17.79L65.4 17.78L65.4 17.77L65.39 17.76L65.39 17.76L65.38 17.75L65.38 17.74L65.37 17.73L65.37 17.73L65.36 17.72L65.36 17.72L65.35 17.71L65.35 17.71L65.34 17.69L65.34 17.69L65.33 17.68L65.33 17.68L65.32 17.67L65.32 17.67L65.31 17.65L65.31 17.65L65.21 17.6L65.21 17.6L65.2 17.59L65.2 17.59L65.19 17.57L65.19 17.57L65.18 17.56L65.18 17.56L65.17 17.54L65.17 17.54L65.16 17.53L65.16 17.53L65.15 17.52L65.15 17.52L65.12 17.49L65.12 17.49L65.1 17.45L65.1 17.45L65.08 17.42L65.08 17.42L65.07 17.41L65.07 17.41L65.06 17.39L65.06 17.39L65.04 17.37L65.04 17.37L65.02 17.34L65.02 17.34L64.98 17.29L64.98 17.29L64.94 17.25L64.94 17.25L64.92 17.21L64.92 17.21C64.56 16.75 64.2 16.3 63.82 15.86L63.82 15.86L63.79 15.83L63.79 15.83L63.75 15.8L63.75 15.8L63.74 15.78L63.74 15.78L63.72 15.75L63.72 15.75L63.7 15.74L63.7 15.74L63.69 15.72L63.69 15.72L63.68 15.71L63.68 15.71L63.67 15.69L63.67 15.69L63.65 15.68L63.65 15.68L63.64 15.67L63.64 15.67L63.62 15.64L63.62 15.64L63.6 15.62L63.6 15.62L63.59 15.61L63.59 15.61L63.58 15.6L63.58 15.6L63.57 15.59L63.57 15.59L63.56 15.58L63.56 15.58L63.55 15.57L63.55 15.57L63.54 15.55L63.54 15.55L63.51 15.51L63.51 15.51L63.5 15.5L63.5 15.49L63.49 15.48L63.49 15.48L63.48 15.47L63.48 15.46L63.47 15.45L63.47 15.45L63.46 15.44L63.45 15.43L63.44 15.42L63.44 15.41L63.43 15.4L63.42 15.4L63.42 15.39L63.41 15.38L63.41 15.38L63.38 15.37L63.38 15.37L63.37 15.36L63.37 15.36L63.36 15.34L63.36 15.34L63.35 15.33L63.35 15.33L63.33 15.32L63.33 15.32L63.31 15.29L63.31 15.29L63.29 15.27L63.29 15.27C63.12 15.08 62.94 14.89 62.77 14.7L62.76 14.69ZM54.39 8.21L53.36 10.06C54.82 10.86 56.21 11.77 57.52 12.79L58.82 11.12L58.82 11.12L58.82 11.12L58.81 11.11L58.81 11.11L58.78 11.09L58.78 11.09L58.77 11.08L58.77 11.08L58.76 11.07L58.76 11.07L58.74 11.06L58.74 11.06L58.73 11.05L58.73 11.05L58.69 11.01L58.69 11.01L58.67 11L58.67 11L58.64 10.98L58.64 10.98L58.62 10.96L58.62 10.96L58.59 10.93L58.59 10.93L58.56 10.91L58.56 10.91L58.54 10.89L58.54 10.89L58.51 10.87L58.51 10.87L58.46 10.83L58.46 10.83C58.11 10.57 57.76 10.31 57.4 10.07L57.4 10.07L57.35 10.03L57.35 10.03L57.21 9.94L57.21 9.94L57.18 9.92L57.18 9.92L57.16 9.9L57.16 9.9L57.12 9.88L57.12 9.88L57.11 9.87L57.11 9.87L57.1 9.86L57.1 9.86L57.07 9.84L57.07 9.84L57.04 9.82L57.04 9.82L57.03 9.81L57.03 9.81L57.02 9.81L57.02 9.81L57 9.8L57 9.8L56.98 9.78L56.98 9.78L56.97 9.78L56.97 9.78L56.95 9.76L56.95 9.76L56.92 9.74L56.92 9.74L56.91 9.73L56.91 9.73L56.9 9.73L56.9 9.73L56.88 9.72L56.88 9.72L56.87 9.71L56.87 9.71L56.81 9.67L56.81 9.67L56.8 9.66L56.8 9.66L56.77 9.64L56.77 9.64L56.75 9.63L56.75 9.63L56.74 9.63L56.74 9.63L56.73 9.62L56.73 9.62L56.71 9.6L56.71 9.6L56.7 9.6L56.7 9.6L56.69 9.59L56.69 9.59L56.68 9.58L56.67 9.58L56.66 9.57L56.65 9.57L56.6 9.53L56.6 9.53L56.59 9.53L56.59 9.53L56.57 9.52L56.57 9.52L56.56 9.51L56.55 9.5L56.54 9.5L56.53 9.5L56.52 9.5L56.51 9.5L56.51 9.5L56.5 9.46L56.49 9.46L56.48 9.46L56.47 9.46L56.46 9.45L56.45 9.45L56.45 9.45L56.44 9.44L56.43 9.44L56.42 9.44L56.41 9.43L56.4 9.43L56.39 9.43L56.38 9.43L56.37 9.43L56.37 9.43L56.36 9.42L56.35 9.42L56.34 9.41L56.33 9.41L56.32 9.41L56.32 9.41L56.31 9.4L56.3 9.39L56.28 9.33L56.28 9.33L56.27 9.31L56.26 9.31L56.25 9.31L56.24 9.3L56.23 9.3L56.23 9.3L56.22 9.29L56.21 9.29L56.2 9.28L56.19 9.28L56.18 9.26L56.17 9.26L56.16 9.25L56.15 9.25L56.14 9.25L56.14 9.25L56.12 9.24L56.12 9.24L56.11 9.23L56.1 9.21L56.09 9.21L56.09 9.21L56.07 9.19L56.06 9.19L56.05 9.19L56.05 9.19L56.04 9.18L56.03 9.18L56.02 9.17L56.01 9.17L56 9.17L56 9.17L55.98 9.16L55.98 9.16L55.97 9.15L55.97 9.15L55.96 9.14L55.95 9.14L55.93 9.1L55.93 9.1L55.92 9.09L55.92 9.09L55.91 9.08L55.9 9.08L55.89 9.08L55.89 9.08L55.87 9.07L55.87 9.07L55.85 9.06L55.85 9.06L55.84 9.06L55.84 9.06L55.83 9.05L55.83 9.05L55.81 9.04L55.81 9.04L55.8 9.03L55.8 9.03L55.76 8.99L55.76 8.99L55.75 8.99L55.75 8.99L55.73 8.98L55.73 8.98L55.72 8.97L55.72 8.97L55.71 8.96L55.71 8.96L55.69 8.95L55.69 8.95L55.65 8.93L55.65 8.93L55.63 8.92L55.63 8.92L55.62 8.91L55.62 8.91L55.6 8.9L55.6 8.9L55.58 8.89L55.58 8.89L55.57 8.88L55.57 8.88L55.55 8.87L55.55 8.87L55.54 8.86L55.54 8.86L55.53 8.86L55.53 8.86L55.51 8.85L55.51 8.85L55.5 8.84L55.5 8.84L55.49 8.83L55.49 8.83L55.43 8.8L55.43 8.8L55.42 8.79L55.42 8.79L55.4 8.78L55.4 8.78L55.39 8.77L55.39 8.77L55.38 8.77L55.38 8.77L55.36 8.76L55.36 8.76L55.33 8.74L55.33 8.74L55.31 8.73L55.31 8.73L55.3 8.72L55.3 8.72L55.28 8.71L55.28 8.71L55.27 8.7L55.27 8.7L55.26 8.7L55.26 8.7L55.22 8.68L55.22 8.68L55.21 8.67L55.21 8.67L55.19 8.66L55.19 8.66L55.18 8.65L55.18 8.65L55.16 8.64L55.16 8.64L55.15 8.63L55.15 8.63L55.11 8.61L55.11 8.61L55.1 8.6L55.1 8.6L55.09 8.6L55.09 8.6L55.06 8.58L55.06 8.58L55.04 8.57L55.04 8.57L55.03 8.56L55.03 8.56L55.01 8.55L55.01 8.55L55 8.54L55 8.54L54.98 8.53L54.98 8.53L54.97 8.53L54.97 8.53L54.96 8.52L54.96 8.52L54.94 8.51L54.94 8.51L54.9 8.49L54.9 8.49L54.89 8.48L54.89 8.48L54.86 8.46L54.86 8.46L54.85 8.46L54.85 8.46L54.83 8.45L54.83 8.45L54.81 8.44L54.81 8.44L54.8 8.42L54.8 8.42L54.78 8.42L54.78 8.42L54.77 8.41L54.77 8.41L54.76 8.4L54.75 8.4L54.74 8.39L54.73 8.39L54.72 8.39L54.71 8.39L54.7 8.38L54.69 8.38L54.66 8.36L54.66 8.36L54.65 8.35L54.64 8.35L54.63 8.34L54.62 8.34L54.61 8.34L54.6 8.34L54.59 8.33L54.59 8.33L54.57 8.33L54.57 8.33L54.56 8.32L54.55 8.32L54.54 8.31L54.53 8.31L54.52 8.31L54.51 8.31L54.5 8.31L54.49 8.31L54.48 8.25L54.48 8.25L54.47 8.25L54.46 8.24L54.45 8.24L54.44 8.24L54.43 8.24L54.42 8.24L54.41 8.24L54.4 8.23L54.39 8.23L54.39 8.23L54.39 8.21ZM44.43 4.61L44.03 6.69C45.67 7.01 47.27 7.45 48.83 8.01L49.55 6.01C48.63 5.68 47.68 5.38 46.71 5.13L46.71 5.13L46.61 5.1L46.61 5.1L46.57 5.09L46.57 5.09L46.51 5.07L46.51 5.07L46.47 5.06L46.47 5.06L46.43 5.05L46.43 5.05L46.42 5.05L46.42 5.05L46.4 5.05L46.4 5.05L46.38 5.05L46.38 5.05L46.33 5.03L46.33 5.03L46.31 5.03L46.31 5.03L46.3 5.03L46.3 5.03L46.28 5.03L46.28 5.03L46.26 5.03L46.26 5.03L46.25 5.03L46.25 5.03L46.23 5.03L46.23 5.03L46.21 5.03L46.21 5.03L46.19 5.03L46.19 5.03L46.18 5.03L46.18 5.03L46.16 5.03L46.16 5.03L46.15 5.03L46.15 5.03L46.13 5.03L46.13 5.03L46.11 5.03L46.11 5.03L46.1 5.03L46.1 5.03L46.08 5.03L46.08 5.03L46.07 5.03L46.07 5.03L46.05 5.03L46.04 5.03L46.03 5.03L46.03 5.03L46.01 5.03L46.01 5.03L45.99 5.03L45.92 5.03L45.91 5.03L45.9 5.03L45.89 5.03L45.88 5.03L45.87 4.91L45.86 4.91L45.85 4.91L45.84 4.91L45.83 4.91L45.82 4.91L45.81 4.91L45.8 4.91L45.79 4.91L45.78 4.91L45.77 4.91L45.76 4.91L45.75 4.91L45.74 4.91L45.73 4.91L45.72 4.91L45.71 4.91L45.7 4.91L45.69 4.91L45.68 4.91L45.67 4.91L45.66 4.91L45.64 4.91L45.63 4.91L45.62 4.91L45.62 4.91L45.6 4.91L45.59 4.91L45.58 4.91L45.57 4.91L45.56 4.91L45.55 4.91L45.54 4.91L45.53 4.91L45.52 4.91L45.52 4.91L45.5 4.91L45.5 4.91L45.48 4.91L45.48 4.91L45.46 4.91L45.45 4.91L45.44 4.82L45.43 4.82L45.42 4.82L45.42 4.82L45.4 4.82L45.39 4.82L45.38 4.82L45.37 4.82L45.36 4.82L45.35 4.82L45.34 4.82L45.33 4.82L45.32 4.82L45.31 4.82L45.3 4.82L45.29 4.82L45.28 4.82L45.27 4.82L45.26 4.82L45.25 4.82L45.24 4.82L45.23 4.82L45.22 4.82L45.21 4.82L45.19 4.82L45.19 4.82L45.18 4.82L45.17 4.82L45.15 4.82L45.15 4.82L45.14 4.82L45.13 4.82L45.11 4.74L45.11 4.74L45.1 4.74L45.09 4.74L45.08 4.74L45.07 4.74L45.05 4.74L45.05 4.74L45.03 4.74L45.03 4.74L45.01 4.74L45.01 4.74L44.99 4.74L44.99 4.74L44.98 4.74L44.97 4.74L44.95 4.74L44.95 4.74L44.93 4.74L44.93 4.74L44.91 4.7L44.91 4.7L44.9 4.7L44.9 4.7L44.88 4.7L44.88 4.7L44.86 4.7L44.86 4.7L44.85 4.7L44.84 4.7L44.81 4.68L44.81 4.68L44.79 4.68L44.79 4.68L44.78 4.68L44.77 4.68L44.76 4.68L44.76 4.68L44.74 4.68L44.74 4.68L44.7 4.66L44.7 4.66L44.68 4.66L44.68 4.66L44.67 4.66L44.67 4.66L44.65 4.66L44.65 4.66L44.63 4.66L44.63 4.66L44.62 4.66L44.62 4.66L44.6 4.66L44.6 4.66L44.58 4.66L44.58 4.66L44.56 4.66L44.56 4.66L44.54 4.66L44.54 4.66L44.53 4.66L44.53 4.66L44.51 4.66L44.51 4.66L44.44 4.61L44.44 4.61L44.43 4.61L44.43 4.61ZM38.01 4L38.01 6.13C38.37 6.13 38.73 6.13 39.09 6.14L39.16 4.02C38.92 4.01 38.68 4.01 38.45 4L38.01 4Z" />
	<path id="Layer" class="shp1" fill="#e21b1b" d="M38.01 64.58C23.31 64.58 11.43 52.7 11.43 38.01C11.43 23.31 23.31 11.43 38.01 11.43C52.71 11.43 64.59 23.31 64.59 38.01C64.59 52.7 52.71 64.58 38.01 64.58Z" />
	<g id="Layer">
		<path id="redgola " fill="#2d1b49" d="M114.26 17.62Q117.86 19.3 119.9 22.6Q122 25.9 122 29.92Q122 34.6 119.12 38.32Q116.3 41.98 111.86 43.18L122.48 58L119.84 58L109.58 43.6L107.66 43.66L92.6 43.66L92.6 58L90.38 58L90.38 16.24L106.28 16.24Q108.92 16.24 110.78 16.6Q112.7 16.9 114.26 17.62ZM92.6 41.44L108.26 41.44Q111.38 41.44 114.02 39.88Q116.66 38.32 118.22 35.68Q119.78 33.04 119.78 29.92Q119.78 26.44 117.92 23.62Q116.12 20.8 112.88 19.42Q110.54 18.46 106.28 18.46L92.6 18.46L92.6 41.44ZM135.2 58L135.2 16.24L164.6 16.24L164.6 18.46L137.42 18.46L137.42 35.38L161.06 35.38L161.06 37.6L137.42 37.6L137.42 55.78L164.6 55.78L164.6 58L135.2 58ZM193.58 16.24Q198.14 16.24 201.98 18.52Q205.88 20.8 208.16 24.7Q210.44 28.54 210.44 33.1L210.44 41.14Q210.44 45.7 208.16 49.6Q205.88 53.44 201.98 55.72Q198.14 58 193.58 58L178.16 58L178.16 16.24L193.58 16.24ZM208.22 41.14L208.22 33.1Q208.22 29.14 206.24 25.78Q204.26 22.42 200.84 20.44Q197.48 18.46 193.52 18.46L180.38 18.46L180.38 55.78L193.52 55.78Q197.48 55.78 200.84 53.8Q204.26 51.82 206.24 48.46Q208.22 45.1 208.22 41.14ZM252.76 32.34L253.11 51.44Q251.74 53.17 249.72 54.46Q247.69 55.74 245.38 56.59Q243.07 57.44 240.63 57.88Q238.2 58.29 236 58.29Q231.76 58.29 228.18 56.86Q224.61 55.42 222 52.87Q219.42 50.29 217.96 46.75Q216.49 43.21 216.49 39.02Q216.49 35.82 217.23 32.8Q217.96 29.79 219.31 27.15Q220.68 24.51 222.65 22.32Q224.61 20.12 227.1 18.54Q229.59 16.96 232.55 16.11Q235.54 15.23 238.88 15.23Q240.14 15.23 241.57 15.34Q243.01 15.43 244.41 15.7Q245.85 15.93 247.2 16.37Q248.54 16.81 249.66 17.45L248.84 28.64Q247.2 28.03 245.44 27.82Q243.71 27.59 242.04 27.59Q239.7 27.59 237.65 28.23Q235.62 28.85 234.1 30.08Q232.61 31.31 231.73 33.16Q230.85 35 230.85 37.43Q230.85 38.96 231.26 40.39Q231.67 41.8 232.49 42.91Q233.34 44 234.57 44.67Q235.83 45.34 237.47 45.34Q238.58 45.34 239.75 45.05Q240.96 44.76 241.81 44.05L241.92 41.77L234.89 41.65L235.24 32.86Q239.61 32.72 243.97 32.63Q248.34 32.51 252.76 32.34ZM291.55 35.56Q291.55 38.22 290.94 40.71Q290.32 43.18 289.15 45.34Q288.01 47.51 286.34 49.33Q284.7 51.12 282.62 52.4Q280.57 53.69 278.13 54.43Q275.7 55.13 272.98 55.13Q270.34 55.13 267.94 54.46Q265.57 53.78 263.49 52.58Q261.41 51.35 259.71 49.65Q258.04 47.92 256.83 45.84Q255.66 43.73 254.99 41.33Q254.34 38.93 254.34 36.32Q254.34 33.77 254.96 31.34Q255.57 28.88 256.72 26.71Q257.89 24.54 259.53 22.73Q261.17 20.91 263.19 19.59Q265.24 18.27 267.62 17.54Q269.99 16.81 272.63 16.81Q276.87 16.81 280.36 18.13Q283.88 19.45 286.34 21.91Q288.83 24.34 290.17 27.82Q291.55 31.28 291.55 35.56ZM278.54 36.32Q278.54 35.06 278.16 33.89Q277.81 32.69 277.11 31.78Q276.41 30.84 275.35 30.29Q274.32 29.7 272.98 29.7Q271.6 29.7 270.52 30.2Q269.43 30.7 268.64 31.57Q267.88 32.42 267.47 33.6Q267.06 34.74 267.06 36.03Q267.06 37.26 267.41 38.49Q267.76 39.72 268.47 40.71Q269.17 41.71 270.19 42.33Q271.25 42.94 272.63 42.94Q274 42.94 275.09 42.41Q276.2 41.86 276.96 40.95Q277.72 40.01 278.13 38.81Q278.54 37.61 278.54 36.32ZM307.4 42.47L319.3 42.47L318.07 55.48L293.4 57.41L294.33 15.58L309.57 15.58L307.4 42.47ZM346.19 16.05L357.62 55.48L343.08 57.36L341.33 50.73L334.65 50.73L333.18 57.36L318.24 55.89L329.9 16.87L346.19 16.05ZM335.88 41.77L340.27 41.77L338.05 31.57L335.88 41.77Z" />
	</g>
</svg>