<svg xmlns="http://www.w3.org/2000/svg" viewBox="0 0 369 69" width="369" height="69">
	<path id="gemstone " fill="#000000" d="M116.92 21.78L124.66 21.78L124.66 48Q124.66 51.72 122.5 54.78Q120.4 57.78 116.74 59.52Q113.14 61.2 108.88 61.2Q105.64 61.2 103.18 60.42Q100.78 59.64 99.28 58.68Q97.84 57.72 95.8 56.04L100.72 50.28Q102.52 51.96 104.26 52.92Q106.06 53.88 108.76 53.88Q111.94 53.88 114.1 52.32Q116.26 50.7 116.26 47.88L116.26 44.16Q115.06 46.2 112.54 47.46Q110.08 48.72 106.48 48.72Q102.94 48.72 99.88 46.92Q96.88 45.06 95.08 41.88Q93.28 38.64 93.28 34.74Q93.28 30.78 95.14 27.48Q97.06 24.18 100.12 22.32Q103.24 20.46 106.66 20.46Q109.9 20.46 112.42 21.42Q114.94 22.32 116.26 23.82L116.92 21.78ZM109 41.88Q114.04 41.88 116.26 37.92L116.26 31.5Q115.42 29.58 113.44 28.44Q111.52 27.3 109 27.3Q105.94 27.3 103.84 29.34Q101.74 31.38 101.74 34.5Q101.74 37.62 103.84 39.78Q105.94 41.88 109 41.88ZM146.38 41.58Q148.9 41.58 151.6 39.84L155.32 46.08Q153.16 47.28 150.76 48Q148.36 48.72 146.2 48.72Q141.52 48.72 138.1 46.98Q134.74 45.18 133 42Q131.26 38.76 131.26 34.62Q131.26 30.78 133.24 27.54Q135.28 24.3 138.76 22.44Q142.24 20.52 146.38 20.52Q152.02 20.52 155.62 23.82Q159.28 27.12 160.36 33.24L141.16 39.36Q143.08 41.58 146.38 41.58ZM145.72 27.06Q142.9 27.06 141.22 28.98Q139.54 30.9 139.54 34.14L139.54 34.68L151.06 30.78Q149.8 27.06 145.72 27.06ZM201.04 20.46Q204.88 20.46 207.16 22.62Q209.5 24.78 209.62 28.32L209.62 48L201.28 48L201.28 31.8Q201.16 29.82 200.62 28.86Q200.08 27.84 198.52 27.72Q195.58 27.72 193.9 30.6Q192.28 33.42 192.28 37.26L192.28 48L183.88 48L183.88 31.8Q183.76 29.82 183.16 28.86Q182.56 27.84 180.94 27.72Q178.12 27.72 176.5 30.6Q174.88 33.42 174.88 37.14L174.88 48L166.48 48L166.48 21.78L174.1 21.78L174.7 25.92Q177.88 20.46 184.18 20.46Q187.36 20.46 189.4 21.78Q191.5 23.04 192.28 25.56Q193.96 23.22 196.24 21.84Q198.58 20.46 201.04 20.46ZM226.78 48.54Q223.54 48.54 220.72 47.4Q217.9 46.26 216.04 44.22L219.52 39.6Q223 42.84 226.06 42.84Q227.68 42.84 228.64 42.36Q229.66 41.82 229.66 40.8Q229.66 39.6 228.52 39Q227.38 38.34 225.94 37.92Q224.56 37.5 224.08 37.38Q220.66 36.3 218.98 34.2Q217.3 32.04 217.3 29.28Q217.3 27.18 218.38 25.2Q219.52 23.16 221.86 21.9Q224.2 20.58 227.68 20.58Q230.92 20.58 233.2 21.24Q235.48 21.9 237.58 23.4L234.4 28.32Q233.2 27.36 231.7 26.76Q230.26 26.1 229.06 26.1Q227.62 26.1 226.72 26.7Q225.82 27.3 225.82 28.14Q225.76 29.4 226.84 30.06Q227.98 30.66 230.32 31.32Q230.68 31.44 231.04 31.56Q231.46 31.68 231.88 31.8Q238.06 33.84 238.06 39.24Q238.06 41.76 236.8 43.86Q235.54 45.96 232.96 47.28Q230.44 48.54 226.78 48.54ZM247.54 10.26L255.94 10.26L255.94 21.66L262.3 21.66L262.3 28.2L255.94 28.2L255.94 48L247.54 48L247.54 28.2L243.46 28.2L243.46 21.66L247.54 21.66L247.54 10.26ZM266.68 34.56Q266.68 30.54 268.54 27.36Q270.46 24.18 273.88 22.38Q277.36 20.52 281.74 20.52Q286.12 20.52 289.42 22.38Q292.78 24.18 294.58 27.36Q296.38 30.54 296.38 34.56Q296.38 38.58 294.58 41.82Q292.78 45.06 289.42 46.92Q286.12 48.72 281.62 48.72Q277.24 48.72 273.82 47.04Q270.46 45.3 268.54 42.12Q266.68 38.94 266.68 34.56ZM275.14 34.62Q275.14 37.74 276.94 39.84Q278.74 41.88 281.5 41.88Q284.38 41.88 286.12 39.84Q287.92 37.8 287.92 34.62Q287.92 31.44 286.12 29.4Q284.38 27.36 281.5 27.36Q278.74 27.36 276.94 29.46Q275.14 31.5 275.14 34.62ZM321.22 20.52Q324.94 20.52 327.4 22.74Q329.92 24.96 329.98 28.38L329.98 48L321.58 48L321.58 31.5Q321.4 27.66 317.74 27.66Q314.86 27.66 313.12 30.36Q311.38 33.06 311.38 37.32L311.38 48L302.98 48L302.98 21.78L310.6 21.78L311.2 25.98Q312.64 23.4 315.16 21.96Q317.74 20.52 321.22 20.52ZM351.7 41.58Q354.22 41.58 356.92 39.84L360.64 46.08Q358.48 47.28 356.08 48Q353.68 48.72 351.52 48.72Q346.84 48.72 343.42 46.98Q340.06 45.18 338.32 42Q336.58 38.76 336.58 34.62Q336.58 30.78 338.56 27.54Q340.6 24.3 344.08 22.44Q347.56 20.52 351.7 20.52Q357.34 20.52 360.94 23.82Q364.6 27.12 365.68 33.24L346.48 39.36Q348.4 41.58 351.7 41.58ZM351.04 27.06Q348.22 27.06 346.54 28.98Q344.86 30.9 344.86 34.14L344.86 34.68L356.38 30.78Q355.12 27.06 351.04 27.06Z" />
	<g id="Layer">
		<path id="Layer" fill-rule="evenodd" class="shp0" d="M36.35 2.66C40.41 2.63 44.46 2.63 48.51 2.69C50.83 2.73 53.14 2.98 55.46 3.02C57.62 3.05 59.8 3.02 61.95 2.82C64.46 2.59 66.26 3.63 67.64 5.57C69.4 8.04 71.07 10.56 72.86 12.99C73.88 14.38 75.07 15.64 76.16 16.97C77.25 18.29 77.22 19.69 76.42 21.14C74.8 24.04 72.96 26.78 70.87 29.37C68.31 32.53 65.94 35.84 63.38 38.99C60.55 42.47 57.61 45.85 54.72 49.27C52.84 51.5 50.96 53.73 49.06 55.94C47.82 57.4 46.5 58.79 45.27 60.25C43.71 62.1 42.21 63.99 40.68 65.85C40.39 66.21 40.05 66.55 39.76 66.92C38.61 68.4 37.36 68.13 36.26 66.97C33.67 64.25 30.89 61.69 28.84 58.49C28.04 57.23 27.37 55.88 26.53 54.64C24.03 50.98 21.59 47.28 18.93 43.75C15.98 39.83 12.77 36.1 9.77 32.22C8.11 30.08 6.62 27.81 5.06 25.59C3.85 23.85 2.65 22.09 1.43 20.36C0.82 19.51 0.86 18.71 1.54 17.97C3.22 16.14 4.94 14.36 6.63 12.53C8.91 10.06 11.19 7.59 13.43 5.09C14.79 3.58 16.44 2.89 18.45 3.03C18.86 3.06 19.27 3.04 19.68 3.04C19.68 2.99 19.68 2.94 19.68 2.89C25.24 2.81 30.79 2.71 36.35 2.66ZM44.69 41.19C47.08 34.61 49.55 28.05 52.03 21.34C50.55 21.42 49.36 21.56 48.18 21.53C44.72 21.45 41.27 21.32 37.82 21.18C36.85 21.14 35.88 20.96 34.92 20.95C31.79 20.92 28.67 20.94 25.59 20.94C26.29 22.95 27.06 24.98 27.71 27.06C30.16 34.81 32.49 42.6 34.41 50.51C35.27 54.07 36.59 57.51 37.69 60.95C39.99 54.43 42.3 47.8 44.69 41.19ZM74.23 21.17C71.18 21.23 68.33 21.31 65.48 21.35C64.2 21.36 62.91 21.26 61.63 21.26C59.56 21.26 57.47 21.41 55.41 21.28C53.49 21.16 53.57 21.06 52.93 22.85C50.61 29.29 48.2 35.7 45.9 42.15C43.39 49.23 40.96 56.34 38.51 63.45C38.39 63.8 38.5 64.22 38.5 64.74C38.71 64.54 38.82 64.47 38.9 64.37C40.35 62.61 41.77 60.82 43.24 59.07C44.42 57.69 45.68 56.37 46.87 54.99C48.87 52.66 50.86 50.31 52.84 47.96C55.97 44.25 59.12 40.55 62.21 36.8C64.91 33.51 67.56 30.18 70.18 26.82C71.58 25 72.86 23.09 74.23 21.17ZM26.87 41.01C26.75 41.31 26.64 41.63 26.49 41.92C25.79 43.25 25.06 44.57 24.37 45.91C24.25 46.15 24.16 46.55 24.27 46.75C24.79 47.66 25.39 48.53 26.01 49.48C26.76 48.16 27.44 46.95 28.13 45.73C28.25 45.8 28.38 45.87 28.51 45.93C27.94 47.17 27.34 48.38 26.81 49.64C26.68 49.96 26.63 50.47 26.8 50.73C28.38 53.24 29.92 55.79 31.66 58.19C33.15 60.22 34.89 62.06 36.52 63.99C36.66 63.91 36.8 63.83 36.95 63.75C32.52 49.44 29.35 34.77 24.23 20.74C17.31 20.53 10.44 20.33 3.59 20.12C6.62 24.22 9.74 28.43 12.87 32.67C14.29 30.4 15.59 28.35 16.88 26.29C17 26.36 17.12 26.43 17.24 26.51C15.96 28.73 14.68 30.96 13.36 33.26C13.87 33.89 14.43 34.58 15 35.28C16.7 32.91 18.3 30.68 19.9 28.44C19.97 28.49 20.04 28.54 20.12 28.6C19.04 31.31 17.16 33.53 15.62 35.66C16.02 36.2 16.37 36.67 16.75 37.18C17.94 35.29 19.05 33.5 20.17 31.7C20.25 31.74 20.32 31.78 20.4 31.81C20.33 32.01 20.3 32.22 20.2 32.4C19.36 34 18.52 35.6 17.64 37.18C17.42 37.57 17.28 37.87 17.63 38.24C18.13 38.76 18.61 39.3 19.07 39.82C20.23 38.17 21.4 36.52 22.57 34.87C22.66 34.92 22.76 34.98 22.86 35.03C22.64 35.54 22.49 36.07 22.21 36.54C21.51 37.73 20.74 38.87 20.04 40.06C19.9 40.3 19.82 40.74 19.94 40.96C20.34 41.65 20.84 42.29 21.35 43.01C22.47 41.15 23.54 39.39 24.61 37.63C24.72 37.69 24.83 37.76 24.94 37.82C24.27 39.96 22.98 41.8 21.87 43.73C22.46 44.44 23.01 45.11 23.55 45.76C24.6 44.11 25.63 42.5 26.66 40.89C26.73 40.93 26.8 40.97 26.87 41.01ZM57.42 4.36C57.3 4.36 57.17 4.4 57.05 4.41C56.02 4.52 55 4.73 53.97 4.72C49.98 4.69 45.99 4.6 41.99 4.54C41.11 4.52 40.22 4.53 39.34 4.53C39.29 4.63 39.24 4.73 39.19 4.83C41.82 8.13 44.37 11.5 47.11 14.71C48.44 16.28 50.11 17.56 51.65 18.94C52.06 19.3 52.51 19.6 53.1 19.02C56.92 15.23 60.27 11.08 63.06 6.48C63.39 5.93 63.64 5.33 63.96 4.67C61.64 4.56 59.53 4.46 57.42 4.36ZM26.73 18.82C34.53 19.13 42.31 19.43 50.09 19.74C45.25 15.63 41.79 10.56 38.24 5.26C34.31 9.9 30.5 14.38 26.73 18.82ZM25.01 18.61C29.04 13.95 32.98 9.4 37.09 4.64C30.07 4.79 23.32 4.93 16.73 5.07C19.08 9.63 21.54 14.24 25.01 18.61ZM54.6 19.61C61.42 20 68.01 20.21 74.94 19.16C70.8 15.23 68.21 10.48 65.2 5.77C62.23 10.99 58.69 15.38 54.6 19.61ZM23.36 18.8C21.96 16.66 20.5 14.59 19.24 12.42C17.96 10.23 16.86 7.92 15.65 5.59C11.93 9.98 8.22 14.35 4.45 18.8C10.73 18.8 17.01 18.8 23.36 18.8Z" />
		<path id="Layer" class="shp0" fill="#000000" d="M35.45 28.3C34.46 30.04 33.48 31.78 32.43 33.65C31.97 32.66 33.85 29.22 35.21 28.13C35.29 28.19 35.37 28.25 35.45 28.3Z" />
		<path id="Layer" class="shp0" fill="#000000" d="M33.22 36.33C34.12 34.79 35.02 33.25 35.92 31.71C36.05 31.79 36.19 31.87 36.32 31.94C35.78 33.69 34.82 35.19 33.62 36.56C33.49 36.49 33.36 36.41 33.22 36.33L33.22 36.33Z" />
		<path id="Layer" class="shp0" fill="#000000" d="M33.27 40.13C33.54 38.75 34.42 37.74 35.34 36.75C35.44 36.8 35.53 36.86 35.62 36.92C34.95 38.05 34.27 39.19 33.59 40.32C33.48 40.26 33.38 40.19 33.27 40.13L33.27 40.13Z" />
		<path id="Layer" class="shp0" fill="#000000" d="M13.53 17.22C13.28 15.96 15.38 12.71 16.59 12.34C15.81 14.16 14.67 15.57 13.53 17.22L13.53 17.22Z" />
		<path id="Layer" class="shp0" fill="#000000" d="M11.76 15.15C12.35 13.91 13.19 12.84 14.12 11.84C14.2 11.88 14.27 11.93 14.34 11.98C13.6 13.11 12.86 14.23 12.12 15.36C12 15.29 11.88 15.22 11.76 15.15Z" />
	</g>
</svg>