<svg xmlns="http://www.w3.org/2000/svg" viewBox="0 0 322 90" width="322" height="90">
	<path id="Layer" class="shp0" fill="#b3404a" d="M46 89C34.24 89 23.2 84.42 14.89 76.11C13.91 75.14 13.91 73.56 14.89 72.58C15.86 71.61 17.44 71.61 18.41 72.58C25.78 79.95 35.58 84.01 46 84.01C56.42 84.01 66.21 79.95 73.58 72.58C80.95 65.21 85.01 55.42 85.01 45C85.01 34.58 80.95 24.78 73.58 17.42C66.21 10.05 56.42 5.99 46 5.99C35.58 5.99 25.78 10.05 18.41 17.42C8.57 27.26 4.71 41.73 8.33 55.18C8.69 56.51 7.9 57.88 6.57 58.24C5.24 58.6 3.87 57.81 3.52 56.48C1.54 49.14 1.49 41.36 3.39 34C5.34 26.41 9.32 19.46 14.89 13.89C23.2 5.58 34.24 1 46 1C57.75 1 68.8 5.58 77.11 13.89C85.42 22.2 90 33.25 90 45C90 56.75 85.42 67.8 77.11 76.11C68.8 84.42 57.75 89 46 89Z" />
	<path id="Layer" class="shp1" fill="#f4b2b0" d="M74.31 29.25C71.99 25.09 68.77 21.52 64.94 18.74L64.22 18.67C58.63 18.67 54.1 23.2 54.1 28.8C54.1 34.39 58.63 38.92 64.22 38.92C69.66 38.92 74.06 34.63 74.31 29.25L74.31 29.25Z" />
	<path id="Layer" fill-rule="evenodd" class="shp0" fill="#b3404a" d="M80.9 45C80.9 46.07 80.85 47.15 80.75 48.21C79.96 56.84 76 64.84 69.59 70.72C63.13 76.64 54.76 79.9 46 79.9C26.75 79.9 11.1 64.24 11.1 45C11.1 25.75 26.75 10.1 46 10.1C58.65 10.1 70.33 16.97 76.5 28.03C76.79 28.54 76.87 29.12 76.78 29.66C76.33 36.28 70.87 41.42 64.23 41.42C64.23 41.42 64.22 41.42 64.22 41.42C57.27 41.42 51.6 35.76 51.6 28.8C51.6 24.01 54.28 19.85 58.21 17.7C54.42 16.01 50.28 15.09 46 15.09C29.51 15.09 16.09 28.51 16.09 45C16.09 61.49 29.51 74.91 46 74.91C61.56 74.91 74.36 63.24 75.78 47.76C75.86 46.85 75.91 45.92 75.91 45C75.91 43.62 77.02 42.5 78.4 42.5C79.78 42.5 80.9 43.62 80.9 45ZM71.75 29.81C69.78 26.49 67.13 23.52 64.02 21.17C59.91 21.28 56.59 24.66 56.59 28.8C56.59 33 60.02 36.43 64.22 36.43L64.23 36.43C68.07 36.43 71.25 33.57 71.75 29.81Z" />
	<path id="Layer" class="shp1" fill="#f4b2b0" d="M64.57 55.58C64.57 59.36 61.37 62.41 57.53 62.14C54.28 61.91 51.66 59.28 51.44 56.04C51.17 52.2 54.21 49 58 49C61.63 49 64.57 51.94 64.57 55.58L64.57 55.58Z" />
	<path id="Layer" fill-rule="evenodd" class="shp0" fill="#b3404a" d="M58 64.65C57.78 64.65 57.57 64.64 57.35 64.63C52.87 64.32 49.25 60.7 48.95 56.21C48.77 53.67 49.63 51.24 51.37 49.38C53.08 47.55 55.49 46.5 58 46.5C63 46.5 67.07 50.57 67.07 55.58C67.07 60.58 63 64.65 58 64.65ZM58 51.49C56.85 51.49 55.79 51.95 55.01 52.79C54.23 53.63 53.85 54.72 53.93 55.87C54.06 57.88 55.69 59.51 57.7 59.65C60.08 59.82 62.08 57.93 62.08 55.58C62.08 53.33 60.25 51.49 58 51.49Z" />
	<path id="Layer" class="shp1" fill="#f4b2b0" d="M35.95 27.05C31.6 25.89 27.15 28.46 25.98 32.78C24.82 37.1 27.4 41.55 31.73 42.71C36.07 43.86 40.53 41.3 41.7 36.98C42.86 32.65 40.28 28.21 35.95 27.05L35.95 27.05Z" />
	<path id="Layer" fill-rule="evenodd" class="shp0" fill="#b3404a" d="M33.84 45.48C33.84 45.48 33.84 45.48 33.84 45.48C32.92 45.48 31.99 45.36 31.09 45.12C28.34 44.38 26.05 42.62 24.63 40.17C23.22 37.72 22.84 34.86 23.58 32.13C24.82 27.51 29.04 24.28 33.83 24.28C34.76 24.28 35.69 24.4 36.59 24.64C39.34 25.38 41.63 27.13 43.05 29.59C44.47 32.04 44.84 34.9 44.11 37.62C42.86 42.25 38.64 45.48 33.84 45.48ZM33.83 29.27C31.29 29.27 29.05 30.98 28.39 33.43C28.01 34.87 28.2 36.38 28.95 37.67C29.7 38.97 30.92 39.9 32.38 40.29C32.86 40.42 33.35 40.49 33.84 40.49C36.39 40.49 38.63 38.78 39.29 36.33C39.67 34.89 39.48 33.38 38.73 32.09C37.98 30.78 36.76 29.85 35.3 29.46C34.82 29.33 34.33 29.27 33.83 29.27Z" />
	<path id="Layer" class="shp1" fill="#f4b2b0" d="M41.25 58.52C41.25 61.13 39.14 63.24 36.53 63.24C33.93 63.24 31.81 61.13 31.81 58.52C31.81 55.92 33.93 53.8 36.53 53.8C39.14 53.8 41.25 55.92 41.25 58.52L41.25 58.52Z" />
	<path id="Layer" fill-rule="evenodd" class="shp0" fill="#b3404a" d="M36.53 65.73C32.55 65.73 29.32 62.5 29.32 58.52C29.32 54.55 32.55 51.31 36.53 51.31C40.51 51.31 43.74 54.55 43.74 58.52C43.74 62.5 40.51 65.73 36.53 65.73ZM36.53 56.3C35.31 56.3 34.31 57.3 34.31 58.52C34.31 59.75 35.31 60.74 36.53 60.74C37.76 60.74 38.75 59.75 38.75 58.52C38.75 57.3 37.76 56.3 36.53 56.3Z" />
	<g id="Layer">
	</g>
	<path id="Rounder " fill="#000000" aria-label="Rounder"  d="M116.76 50.34L116.76 50.34L116.76 50.34L112.98 66L102.42 66L111.96 24L133.14 24L137.22 29.16L134.88 39.72L128.34 45.18L132.48 50.34L130.02 60.9L123.6 66L118.44 66L121.86 50.34L116.76 50.34ZM120.18 34.56L120.18 34.56L119.16 39.72L124.26 39.72L125.64 34.56L120.18 34.56ZM145.5 55.44L145.5 55.44L150.96 55.44L155.76 34.56L150.3 34.56L145.5 55.44L145.5 55.44ZM137.94 66L137.94 66L133.86 60.9L141.06 29.1L147.54 24L163.26 24L167.34 29.1L160.2 60.9L153.72 66L137.94 66ZM175.08 55.44L175.08 55.44L180.54 55.44L187.68 24L198.3 24L189.78 60.9L183.24 66L167.58 66L163.38 60.9L171.6 24L182.22 24L175.08 55.44ZM217.14 34.62L217.14 34.62L212.04 34.62L204.9 66L194.34 66L202.5 29.1L208.98 24L225.06 24L229.14 29.1L220.62 66L210.06 66L217.14 34.62ZM246.36 66L246.36 66L246.36 66L225.18 66L234.78 24L255.9 24L260.04 29.1L252.84 60.9L246.36 66ZM242.94 34.56L242.94 34.56L238.14 55.44L243.6 55.44L248.4 34.56L242.94 34.56ZM268.02 55.44L268.02 55.44L283.74 55.44L281.34 66L260.16 66L256.08 60.9L263.28 29.1L269.7 24L290.88 24L288.54 34.56L272.82 34.56L271.44 39.72L287.52 39.72L285.12 50.28L269.04 50.28L268.02 55.44ZM299.46 50.34L299.46 50.34L299.46 50.34L295.68 66L285.12 66L294.66 24L315.84 24L319.92 29.16L317.58 39.72L311.04 45.18L315.18 50.34L312.72 60.9L306.3 66L301.14 66L304.56 50.34L299.46 50.34ZM302.88 34.56L302.88 34.56L301.86 39.72L306.96 39.72L308.34 34.56L302.88 34.56Z" />
</svg>